<?xml version="1.0" encoding="UTF-8"?>
<svg id="Layer_1" data-name="Layer 1" xmlns="http://www.w3.org/2000/svg" viewBox="0 0 53.23 34.34">
  <defs>
    <style>
      .cls-1 {
        fill: #fff;
      }
    </style>
  </defs>
  <path d="M48.47,0H4.77c-.18,0-.37,0-.55,0-.15,0-.31,0-.46,0-.34,0-.67.03-1,.09-.34.06-.65.16-.95.32-.3.15-.57.35-.81.59-.24.24-.44.51-.59.82-.15.31-.25.62-.31.96-.06.33-.08.67-.09,1.01,0,.15,0,.31,0,.46,0,.18,0,.37,0,.55v24.73c0,.18,0,.37,0,.55,0,.15,0,.31,0,.46,0,.34.03.68.09,1.01.06.34.16.65.31.96.15.3.35.58.59.82.24.24.51.44.81.59.3.16.62.26.95.32.33.06.67.08,1,.09.15,0,.31,0,.46,0,.18,0,.36,0,.55,0h43.7c.18,0,.36,0,.55,0,.15,0,.31,0,.46,0,.33,0,.67-.03,1-.09.34-.06.65-.16.95-.32.3-.15.57-.35.81-.59.24-.24.44-.51.59-.82.15-.31.25-.62.31-.96.06-.33.08-.67.09-1.01,0-.15,0-.31,0-.46,0-.18,0-.37,0-.55V4.8c0-.18,0-.37,0-.55,0-.15,0-.31,0-.46,0-.34-.03-.68-.09-1.01-.06-.34-.16-.65-.31-.96-.15-.3-.35-.58-.59-.82-.24-.24-.51-.44-.81-.59-.3-.16-.62-.26-.95-.32-.33-.06-.67-.08-1-.09-.15,0-.31,0-.46,0-.18,0-.36,0-.55,0Z"/>
  <path class="cls-1" d="M48.47,1.14h.54c.15,0,.29,0,.44,0,.26,0,.55.02.83.07.24.04.44.11.64.21.19.1.37.23.52.38.15.16.28.33.38.53.1.19.16.4.21.64.05.28.06.58.07.84,0,.15,0,.29,0,.44,0,.18,0,.36,0,.54v24.73c0,.18,0,.36,0,.55,0,.15,0,.29,0,.44,0,.26-.02.56-.07.84-.04.24-.11.44-.21.64-.1.19-.23.37-.38.53-.15.16-.33.28-.52.38-.19.1-.4.17-.63.21-.28.05-.59.06-.83.07-.15,0-.29,0-.44,0-.18,0-.36,0-.54,0H4.76c-.18,0-.35,0-.53,0-.15,0-.29,0-.43,0-.24,0-.55-.02-.83-.07-.24-.04-.44-.11-.64-.21-.19-.1-.37-.23-.52-.38-.15-.15-.28-.33-.38-.53-.1-.2-.16-.4-.21-.64-.05-.28-.06-.58-.07-.84,0-.15,0-.29,0-.44v-.43s0-.11,0-.11V4.26c0-.15,0-.29,0-.44,0-.26.02-.56.07-.84.04-.24.11-.45.21-.64.1-.19.23-.37.38-.53.15-.15.33-.28.52-.38.19-.1.4-.17.64-.21.28-.05.58-.06.83-.07.15,0,.29,0,.44,0h.54s43.7,0,43.7,0Z"/>
  <path d="M14.53,11.55c.46-.57.76-1.35.68-2.13-.67.03-1.48.44-1.95,1.02-.42.49-.8,1.3-.7,2.05.75.07,1.5-.38,1.97-.94Z"/>
  <path d="M15.21,12.63c-1.09-.07-2.01.62-2.53.62s-1.32-.59-2.18-.57c-1.12.02-2.16.65-2.73,1.67-1.17,2.03-.31,5.04.83,6.69.55.82,1.22,1.72,2.09,1.69.83-.03,1.15-.54,2.16-.54s1.3.54,2.18.52c.91-.02,1.48-.82,2.03-1.64.63-.93.89-1.83.91-1.88-.02-.02-1.75-.69-1.77-2.7-.02-1.69,1.36-2.49,1.43-2.54-.78-1.16-2-1.29-2.42-1.33Z"/>
  <path d="M24.68,10.35c2.36,0,4.01,1.64,4.01,4.03s-1.68,4.05-4.07,4.05h-2.62v4.19h-1.89v-12.28h4.57ZM22,16.84h2.17c1.65,0,2.58-.89,2.58-2.44s-.94-2.43-2.57-2.43h-2.18v4.88Z"/>
  <path d="M29.18,20.09c0-1.57,1.19-2.53,3.3-2.65l2.43-.14v-.69c0-1-.67-1.59-1.78-1.59-1.06,0-1.71.51-1.88,1.31h-1.72c.1-1.62,1.47-2.81,3.66-2.81s3.53,1.15,3.53,2.94v6.17h-1.75v-1.47h-.04c-.51,1-1.64,1.63-2.8,1.63-1.74,0-2.95-1.09-2.95-2.7ZM34.92,19.28v-.71l-2.19.14c-1.09.08-1.71.56-1.71,1.33s.64,1.29,1.62,1.29c1.28,0,2.27-.89,2.27-2.05Z"/>
  <path d="M38.38,25.92v-1.49c.13.03.44.03.59.03.84,0,1.3-.36,1.58-1.28,0-.02.16-.54.16-.55l-3.21-8.96h1.98l2.25,7.28h.03l2.25-7.28h1.93l-3.33,9.42c-.76,2.17-1.64,2.87-3.48,2.87-.15,0-.61-.02-.74-.04Z"/>
</svg>