<?xml version="1.0" encoding="UTF-8"?>
<svg id="Layer_2" data-name="Layer 2" xmlns="http://www.w3.org/2000/svg" viewBox="0 0 84.02 85.44">
  <defs>
    <style>
      .cls-1 {
        fill: #B8FB82;
      }
    </style>
  </defs>
  <g>
    <path class="cls-1" d="M15.56,85.44h-7.95c-4.2,0-7.61-3.3-7.61-7.36V7.36C0,3.3,3.42,0,7.61,0h7.95c4.2,0,7.61,3.3,7.61,7.36v70.72c0,4.06-3.42,7.36-7.61,7.36ZM7.61,4c-1.99,0-3.61,1.51-3.61,3.36v70.72c0,1.85,1.62,3.36,3.61,3.36h7.95c1.99,0,3.61-1.51,3.61-3.36V7.36c0-1.85-1.62-3.36-3.61-3.36h-7.95Z"/>
    <rect class="cls-1" x="2" y="18.62" width="19.17" height="4" transform="translate(-.08 .05) rotate(-.22)"/>
    <rect class="cls-1" x="2.42" y="64.86" width="18.76" height="4"/>
  </g>
  <g>
    <path class="cls-1" d="M39.83,85.44h-10.94c-5.45,0-9.72-3.23-9.72-7.36V7.36c0-4.13,4.27-7.36,9.72-7.36h10.94c5.45,0,9.72,3.23,9.72,7.36v70.72c0,4.13-4.27,7.36-9.72,7.36ZM28.9,4c-3.37,0-5.72,1.77-5.72,3.36v70.72c0,1.59,2.35,3.36,5.72,3.36h10.94c3.37,0,5.72-1.77,5.72-3.36V7.36c0-1.59-2.35-3.36-5.72-3.36h-10.94Z"/>
    <rect class="cls-1" x="21.17" y="18.62" width="26.39" height="4" transform="translate(-.06 .1) rotate(-.17)"/>
    <rect class="cls-1" x="21.75" y="64.86" width="25.81" height="4"/>
  </g>
  <g>
    <path class="cls-1" d="M71.53,84.98c-2.98,0-5.81-2.24-6.72-5.58L46.2,11.17c-1.07-3.91.91-7.87,4.4-8.83h0l6.25-1.7c1.75-.48,3.59-.15,5.18.94,1.49,1.02,2.59,2.59,3.09,4.43l18.61,68.23c.5,1.84.35,3.75-.42,5.39-.82,1.74-2.24,2.96-3.99,3.44l-6.24,1.7c-.52.14-1.04.21-1.56.21ZM51.66,6.2h0c-1.34.37-2.08,2.16-1.6,3.92l18.61,68.23c.48,1.76,2.02,2.93,3.36,2.56l6.24-1.7c.82-.22,1.24-.9,1.42-1.29.36-.77.43-1.71.17-2.63L61.27,7.06c-.25-.92-.78-1.7-1.48-2.18-.35-.24-1.06-.61-1.88-.39l-6.25,1.7Z"/>
    <rect class="cls-1" x="51.34" y="19.39" width="15.62" height="4" transform="translate(-3.57 16.62) rotate(-15.53)"/>
    <rect class="cls-1" x="63.84" y="63.95" width="15.28" height="4" transform="translate(-14.84 21.14) rotate(-15.26)"/>
  </g>
</svg>