<?xml version="1.0" encoding="UTF-8"?>
<svg id="Layer_1" data-name="Layer 1" xmlns="http://www.w3.org/2000/svg" viewBox="0 0 1533.7 93.51">
  <defs>
    <style>
      .cls-1 {
        fill: #fffbf7;
      }

      .cls-2 {
        fill: #06072d;
      }
    </style>
  </defs>
  <path class="cls-2" d="M766.9,1h0S0,1.01,0,1.01v84.32c112.6,8.25,199,8.18,320.9,8.18h32.6c80.7,0,143.6-3.27,206.6-6.54,62.97-3.27,125.95-6.54,206.7-6.54h0c80.8,0,143.8,3.27,206.8,6.54,63,3.27,125.9,6.54,206.6,6.54h32.6c121.9,0,208.3.07,320.9-8.18V1h-766.8Z"/>
  <path class="cls-1" d="M766.9,0h0S0,0,0,0v84.32c112.6,8.25,199,8.18,320.9,8.18h32.6c80.7,0,143.6-3.27,206.6-6.54,62.97-3.27,125.95-6.54,206.7-6.54h0c80.8,0,143.8,3.27,206.8,6.54,63,3.27,125.9,6.54,206.6,6.54h32.6c121.9,0,208.3.07,320.9-8.18V0h-766.8Z"/>
</svg>