<?xml version="1.0" encoding="UTF-8"?>
<svg id="Layer_1" data-name="Layer 1" xmlns="http://www.w3.org/2000/svg" viewBox="0 0 2349.96 197.61">
  <defs>
    <style>
      .cls-1 {
        fill: #fffbf7;
        stroke: #10112c;
      }
    </style>
  </defs>
  <path class="cls-1" d="M2349.63.37c-90.29,80.52-206.56,141.19-348.06,168.82-144.08,28.14-238.08,28.04-380.61,27.9-10.59-.01-21.43-.03-32.6-.03-80.66,0-143.6-6.97-206.58-13.94h-.01c-62.98-6.97-126.01-13.95-206.78-13.95s-143.79,6.97-206.78,13.95h-.01c-62.99,6.97-125.93,13.94-206.59,13.94-11.16,0-22.01.01-32.6.03-142.53.14-236.52.24-380.61-27.9C206.89,141.56,90.63,80.89.33.37"/>
</svg>