<?xml version="1.0" encoding="UTF-8"?>
<svg id="Layer_1" data-name="Layer 1" xmlns="http://www.w3.org/2000/svg" viewBox="0 0 1534.69 198.14">
  <defs>
    <style>
      .cls-1 {
        fill: #10112c;
      }

      .cls-2, .cls-3 {
        fill: #fffbf7;
      }

      .cls-3 {
        stroke: #10112c;
      }
    </style>
  </defs>
  <path class="cls-3" d="M974.15,183.16h-.01"/>
  <g>
    <path class="cls-1" d="M767.39,170.21c-80.77,0-143.79,6.97-206.78,13.95h-.01c-62.99,6.97-125.93,13.94-206.59,13.94-11.16,0-22.01.01-32.6.03-121.9.12-208.29.21-320.89-17.37V1h766.86"/>
    <path class="cls-1" d="M767.39,1h766.83v179.75c-112.59,17.58-198.98,17.49-320.87,17.37-10.59-.01-21.44-.03-32.6-.03-80.66,0-143.6-6.97-206.58-13.94h-.01c-62.98-6.97-126-13.95-206.77-13.95"/>
  </g>
  <g>
    <path class="cls-2" d="M767.37,169.21c-80.77,0-143.79,6.97-206.78,13.95h-.01c-62.99,6.97-125.93,13.94-206.59,13.94-11.16,0-22.01.01-32.6.03-121.9.12-208.29.21-320.89-17.37V0h766.86"/>
    <path class="cls-2" d="M767.37,0h766.83v179.75c-112.59,17.58-198.98,17.49-320.87,17.37-10.59-.01-21.44-.03-32.6-.03-80.66,0-143.6-6.97-206.58-13.94h-.01c-62.98-6.97-126-13.95-206.77-13.95"/>
  </g>
</svg>