<?xml version="1.0" encoding="UTF-8"?>
<svg id="Layer_1" data-name="Layer 1" xmlns="http://www.w3.org/2000/svg" viewBox="0 0 1533.7 93">
  <defs>
    <style>
      .cls-1 {
        fill: #fffbf7;
      }

      .cls-2 {
        fill: #10112c;
      }
    </style>
  </defs>
  <g>
    <path class="cls-2" d="M766.9,79.85c-80.8,0-143.8,3.27-206.8,6.54h0c-63,3.27-125.9,6.54-206.6,6.54s-22,0-32.6,0c-121.9,0-208.3.07-320.9-8.18V.5h766.9"/>
    <path class="cls-2" d="M766.9.5h766.8v84.33c-112.6,8.25-199,8.18-320.9,8.18h-32.6c-80.7,0-143.6-3.27-206.6-6.54h0c-63-3.27-126-6.54-206.8-6.54"/>
  </g>
  <g>
    <path class="cls-1" d="M766.9,79.42c-80.8,0-143.8,3.27-206.8,6.54h0c-63,3.27-125.9,6.54-206.6,6.54s-22,0-32.6,0c-121.9,0-208.3.07-320.9-8.18V0h766.9"/>
    <path class="cls-1" d="M766.9,0h766.8v84.33c-112.6,8.25-199,8.18-320.9,8.18h-32.6c-80.7,0-143.6-3.27-206.6-6.54h0c-63-3.27-126-6.54-206.8-6.54"/>
  </g>
</svg>