<?xml version="1.0" encoding="UTF-8"?>
<svg id="Layer_2" data-name="Layer 2" xmlns="http://www.w3.org/2000/svg" viewBox="0 0 89.02 82.2">
  <defs>
    <style>
      .cls-1 {
        fill: #B8FB82;
      }
    </style>
  </defs>
  <path class="cls-1" d="M9.09,22.95L.59,14.44c-.78-.78-.78-2.05,0-2.83h0c.78-.78,2.05-.78,2.83,0l7.09,7.09L28.63.59c.78-.78,2.05-.78,2.83,0h0c.78.78.78,2.05,0,2.83L11.92,22.95c-.78.78-2.05.78-2.83,0Z"/>
  <path class="cls-1" d="M76.7,11.61l7.65-7.65c.78-.78.78-2.05,0-2.83h0c-.78-.78-2.05-.78-2.83,0l-7.65,7.65-7.65-7.65c-.78-.78-2.05-.78-2.83,0h0c-.78.78-.78,2.05,0,2.83l7.65,7.65-7.65,7.65c-.78.78-.78,2.05,0,2.83.78.78,2.05.78,2.83,0l7.65-7.65,7.65,7.65c.78.78,2.05.78,2.83,0,.78-.78.78-2.05,0-2.83l-7.65-7.65Z"/>
  <path class="cls-1" d="M43.37,81.6c-.78.8-2.06.8-2.85,0-6.77-6.84-18.61-20.24-13.62-25.76,1.99-2.2,4.92-2.26,7.53-1.57.59.16,1.18-.28,1.18-.9l.02-36.56s0-.09,0-.14c.35-2.59,2.22-7.37,6.9-7.37,5.57,0,7.91,4.09,8.05,7.04l.13,2.96.26,26c0,.62.6,1.06,1.19.89,7.11-2.1,22.12-5.37,29.32,1.8,8.77,8.74,7.83,15.82,7.07,21.5l-.14,1.08c-.49,3.93-1.78,7.72-2.64,9.92-.42,1.07-1.66,1.56-2.7,1.08h0c-.96-.44-1.41-1.56-1.02-2.55.78-2,1.96-5.46,2.39-8.95l.15-1.11c.71-5.31,1.43-10.8-5.93-18.14-6.3-6.28-23.03-1.85-28.94.38l-1.43.54c-.61.23-1.26-.22-1.26-.86l-.34-33.31c0-.12-.02-.24-.07-.36-.48-1.1-1.93-3.91-4.09-3.91s-2.77,2.99-2.91,3.77c-.01.06-.01.1-.01.16v42.39c0,.79-.86,1.26-1.53.85l-1.53-.96c-1.02-.63-5.16-2.66-6.68-.98-1.68,1.86,4.65,11.27,13.49,20.25.77.78.78,2.03.01,2.82h0Z"/>
</svg>