<?xml version="1.0" encoding="UTF-8"?>
<svg id="Layer_1" data-name="Layer 1" xmlns="http://www.w3.org/2000/svg" viewBox="0 0 56.6 34.1">
  <defs>
    <style>
      .cls-1 {
        fill: #e12029;
      }

      .cls-2 {
        fill: #211e1f;
      }

      .cls-3 {
        fill: #fff;
      }
    </style>
  </defs>
  <path class="cls-3" d="M17.05.34C7.84.34.34,7.83.34,17.05s7.5,16.71,16.71,16.71h22.5c9.21,0,16.71-7.5,16.71-16.71S48.77.34,39.55.34h-22.5Z"/>
  <path class="cls-2" d="M17.05.34C7.84.34.34,7.83.34,17.05s7.5,16.71,16.71,16.71h22.5c9.21,0,16.71-7.5,16.71-16.71S48.77.34,39.55.34h-22.5ZM39.55,34.1h-22.5C7.65,34.1,0,26.45,0,17.05S7.65,0,17.05,0h22.5c9.4,0,17.05,7.65,17.05,17.05s-7.65,17.05-17.05,17.05Z"/>
  <path class="cls-1" d="M22.28,8.05H6.49c2.55-2.98,6.33-4.88,10.56-4.88h22.5c4.22,0,8.01,1.89,10.55,4.88h-11.71l-5.88,6.13c-.43-4.71-4.64-6.13-10.23-6.13ZM43.49,16.03l7.22-7.23c1.71,2.31,2.73,5.16,2.73,8.25,0,2.92-.91,5.64-2.46,7.88l-7.48-8.9ZM13.07,13.98h7.27c1.63,0,2.95.73,2.42,2.6-.53,1.9-1.25,2.88-3.63,2.88h-8.05l2-5.49ZM38.44,25.68h11.97c-2.54,3.2-6.47,5.25-10.86,5.25h-22.5c-4.39,0-8.32-2.05-10.86-5.25h14.07c7.06,0,10.82-2.5,11.97-7.86l6.22,7.86Z"/>
</svg>