<?xml version="1.0" encoding="UTF-8"?>
<svg id="Layer_1" data-name="Layer 1" xmlns="http://www.w3.org/2000/svg" viewBox="0 0 62.58 99.22">
  <defs>
    <style>
      .cls-1 {
        fill: #06072d;
      }
    </style>
  </defs>
  <path class="cls-1" d="M62.4,66.05V2.03h-8.51v12.01h-.26c-.87-1.88-1.99-3.68-3.48-5.4-1.49-1.7-3.17-3.21-5.09-4.52-1.93-1.3-3.98-2.32-6.28-3.04-2.29-.7-4.71-1.07-7.32-1.07-5,0-9.51.93-13.42,2.77-3.91,1.85-7.21,4.37-9.86,7.57-2.65,3.2-4.68,6.93-6.08,11.21-1.39,4.29-2.09,8.8-2.09,13.57s.58,9.62,1.76,13.98c1.18,4.37,3.05,8.17,5.66,11.42,2.61,3.22,5.84,5.78,9.82,7.58,3.97,1.8,8.76,2.73,14.35,2.73,5.16,0,9.63-1.3,13.48-3.91,3.85-2.61,6.77-6.09,8.76-10.44h.25v9.44c0,8.45-1.74,14.91-5.23,19.45-3.47,4.47-9.19,6.77-17.14,6.77-2.36,0-4.66-.25-6.9-.75-2.24-.5-4.28-1.3-6.15-2.36-1.81-1.12-3.42-2.48-4.73-4.29-1.31-1.8-2.17-3.97-2.61-6.59H2.62c.28,3.67,1.3,6.84,3.05,9.51,1.75,2.67,3.97,4.84,6.62,6.59,2.65,1.68,5.65,2.92,8.98,3.73,3.35.8,6.78,1.24,10.31,1.24,5.72,0,10.5-.81,14.41-2.29,3.91-1.55,7.09-3.73,9.51-6.65,2.48-2.93,4.22-6.4,5.35-10.57,1.12-4.16,1.74-8.82,1.74-13.92l-.18.26h0ZM31.46,63.75c-3.95,0-7.37-.78-10.25-2.36-2.88-1.57-5.28-3.65-7.16-6.21-1.93-2.57-3.29-5.51-4.22-8.84s-1.37-6.75-1.37-10.27.43-7.13,1.24-10.6c.87-3.47,2.23-6.56,4.1-9.26,1.86-2.7,4.29-4.89,7.14-6.55s6.34-2.5,10.38-2.5,7.45.86,10.31,2.57c2.79,1.72,5.16,3.96,6.96,6.75,1.8,2.8,3.1,5.91,3.91,9.32.81,3.41,1.18,6.85,1.18,10.26s-.5,6.94-1.43,10.27c-.93,3.34-2.36,6.28-4.29,8.84-1.92,2.57-4.22,4.64-7.02,6.21-2.79,1.58-6.03,2.36-9.75,2.36h.26,0Z"/>
</svg>