<?xml version="1.0" encoding="UTF-8"?>
<svg id="Layer_1" data-name="Layer 1" xmlns="http://www.w3.org/2000/svg" viewBox="0 0 98.27 98.27">
  <defs>
    <style>
      .cls-1 {
        fill: #06072d;
      }
    </style>
  </defs>
  <path class="cls-1" d="M28.5,0h41.28c15.72,0,28.5,12.78,28.5,28.5v41.28c0,7.56-3,14.81-8.35,20.15-5.34,5.34-12.59,8.35-20.15,8.35H28.5c-15.72,0-28.5-12.78-28.5-28.5V28.5c0-7.56,3-14.81,8.35-20.15C13.69,3,20.94,0,28.5,0ZM27.52,9.83c-4.69,0-9.19,1.86-12.51,5.18-3.32,3.32-5.18,7.82-5.18,12.51v43.24c0,9.78,7.91,17.69,17.69,17.69h43.24c4.69,0,9.19-1.86,12.51-5.18,3.32-3.32,5.18-7.82,5.18-12.51V27.52c0-9.78-7.91-17.69-17.69-17.69H27.52ZM74.93,17.2c1.63,0,3.19.65,4.34,1.8,1.15,1.15,1.8,2.71,1.8,4.34s-.65,3.19-1.8,4.34c-1.15,1.15-2.71,1.8-4.34,1.8s-3.19-.65-4.34-1.8c-1.15-1.15-1.8-2.71-1.8-4.34s.65-3.19,1.8-4.34c1.15-1.15,2.71-1.8,4.34-1.8ZM49.14,24.57c6.52,0,12.77,2.59,17.37,7.2,4.61,4.61,7.2,10.86,7.2,17.37s-2.59,12.77-7.2,17.37c-4.61,4.61-10.86,7.2-17.37,7.2s-12.77-2.59-17.37-7.2c-4.61-4.61-7.2-10.86-7.2-17.37s2.59-12.77,7.2-17.37c4.61-4.61,10.86-7.2,17.37-7.2ZM49.14,34.4c-3.91,0-7.66,1.55-10.42,4.32-2.76,2.76-4.32,6.51-4.32,10.42s1.55,7.66,4.32,10.42c2.76,2.76,6.51,4.32,10.42,4.32s7.66-1.55,10.42-4.32c2.76-2.76,4.32-6.51,4.32-10.42s-1.55-7.66-4.32-10.42c-2.76-2.76-6.51-4.32-10.42-4.32Z"/>
</svg>