<?xml version="1.0" encoding="UTF-8"?>
<svg id="Layer_1" data-name="Layer 1" xmlns="http://www.w3.org/2000/svg" viewBox="0 0 42.93 34.34">
  <defs>
    <style>
      .cls-1 {
        fill: #f79e1d;
      }

      .cls-2 {
        fill: #e91d25;
      }

      .cls-3 {
        fill: #f16122;
      }
    </style>
  </defs>
  <path d="M7.81,34.15v-2.27c.03-.39-.11-.77-.38-1.04-.26-.28-.63-.42-1.01-.4-.5-.03-.97.21-1.24.64-.24-.42-.69-.66-1.16-.64-.41-.02-.81.18-1.03.54v-.45h-.77v3.62h.77v-2.01c-.03-.25.04-.5.21-.69.17-.19.41-.29.65-.27.51,0,.77.34.77.95v2.02h.77v-2.01c-.03-.25.05-.5.21-.69.17-.19.4-.29.65-.27.52,0,.77.34.77.95v2.02h.77ZM19.26,30.53h-1.25v-1.1h-.77v1.1h-.71v.72h.71v1.65c0,.84.32,1.34,1.22,1.34.34,0,.67-.1.96-.28l-.22-.67c-.21.13-.44.2-.68.2-.38,0-.51-.24-.51-.61v-1.64h1.25v-.72ZM25.8,30.43c-.38-.01-.74.19-.93.53v-.44h-.76v3.62h.77v-2.03c0-.6.25-.93.75-.93.16,0,.33.03.48.09l.24-.74c-.17-.06-.36-.1-.54-.1ZM15.92,30.81c-.43-.27-.93-.4-1.44-.38-.89,0-1.47.44-1.47,1.16,0,.59.43.95,1.22,1.07l.36.05c.42.06.62.17.62.38,0,.28-.28.44-.8.44-.42.01-.83-.12-1.17-.38l-.36.61c.45.32.98.49,1.52.47,1.02,0,1.61-.49,1.61-1.18,0-.64-.46-.97-1.23-1.08l-.36-.05c-.33-.05-.6-.11-.6-.36,0-.27.25-.42.67-.42.38,0,.76.11,1.1.31l.33-.64ZM36.45,30.43c-.38-.01-.74.19-.93.53v-.44h-.76v3.62h.77v-2.03c0-.6.25-.93.75-.93.16,0,.33.03.48.09l.24-.74c-.18-.06-.36-.1-.55-.1ZM26.57,32.34c-.02.52.17,1.02.53,1.38.36.36.85.55,1.35.52.46.02.91-.13,1.27-.43l-.37-.64c-.26.21-.59.32-.92.33-.6-.04-1.06-.55-1.06-1.16s.46-1.12,1.06-1.16c.33,0,.66.12.92.33l.37-.64c-.35-.3-.81-.46-1.27-.43-.5-.03-.99.16-1.35.52-.36.36-.55.86-.53,1.38ZM33.75,32.34v-1.81h-.77v.44c-.27-.35-.68-.55-1.11-.53-.99.05-1.76.89-1.76,1.9s.77,1.85,1.76,1.9c.43.02.85-.18,1.11-.53v.44h.77v-1.81ZM30.9,32.34c.03-.6.52-1.06,1.1-1.03.58.02,1.04.52,1.03,1.11,0,.6-.48,1.08-1.06,1.08-.29,0-.58-.12-.78-.34-.2-.22-.31-.52-.29-.82ZM21.65,30.43c-.99.05-1.77.91-1.75,1.93.01,1.02.81,1.85,1.81,1.88.53.02,1.04-.16,1.44-.51l-.38-.58c-.29.24-.65.37-1.02.38-.53.05-.99-.35-1.05-.89h2.62c0-.1.01-.2.01-.3,0-1.13-.69-1.9-1.67-1.9ZM21.63,31.14c.48,0,.88.38.89.88h-1.83c.03-.51.44-.9.94-.88ZM40.86,32.34v-3.27h-.77v1.89c-.26-.35-.68-.55-1.11-.53-.99.05-1.76.89-1.76,1.9s.78,1.85,1.76,1.9c.43.02.85-.18,1.11-.53v.44h.77v-1.81ZM42.14,33.62s.1,0,.14.03c.04.02.08.04.11.08.03.03.06.07.08.11.04.09.04.19,0,.28-.02.04-.04.08-.08.11-.03.03-.07.06-.11.08-.04.02-.09.03-.14.03-.14,0-.27-.09-.33-.22-.04-.09-.04-.19,0-.28.02-.04.04-.08.08-.11.03-.03.07-.06.11-.08.04-.02.09-.03.14-.03ZM42.14,34.26s.07,0,.11-.02c.03-.01.06-.03.09-.06.11-.11.11-.29,0-.4-.02-.03-.05-.05-.09-.06-.03-.01-.07-.02-.11-.02-.04,0-.07,0-.11.02-.03.01-.06.03-.09.06-.11.11-.11.29,0,.4.02.03.05.05.09.06.03.01.07.02.11.02ZM42.16,33.81s.07,0,.1.03c.02.02.04.05.03.08,0,.03,0,.05-.03.07-.02.02-.05.03-.08.03l.11.13h-.08l-.1-.13h-.03v.13h-.07v-.33h.15ZM42.08,33.88v.09h.08s.03,0,.04-.01c.01,0,.02-.02.02-.03,0-.01,0-.03-.02-.03-.01,0-.03-.01-.04-.01h-.08ZM38.01,32.34c.03-.6.52-1.06,1.1-1.03.58.02,1.04.52,1.03,1.11-.01.6-.48,1.08-1.06,1.08-.29,0-.58-.12-.78-.34-.2-.22-.31-.52-.29-.82ZM12.13,32.34v-1.81h-.77v.44c-.26-.35-.68-.55-1.11-.53-.99.05-1.76.89-1.76,1.9s.77,1.85,1.76,1.9c.43.02.85-.18,1.11-.53v.44h.77v-1.81ZM9.28,32.34c.03-.6.52-1.06,1.1-1.03.58.02,1.04.52,1.03,1.11-.01.6-.48,1.08-1.06,1.08-.29,0-.58-.12-.78-.34-.2-.22-.31-.52-.29-.82Z"/>
  <path class="cls-3" d="M27.27,2.92h-11.61v21.45h11.61V2.92Z"/>
  <path class="cls-2" d="M16.4,13.64c0-4.19,1.86-8.14,5.07-10.73C16.03-1.48,8.21-.84,3.52,4.39c-4.69,5.23-4.69,13.29,0,18.51s12.51,5.87,17.95,1.47c-3.2-2.58-5.07-6.54-5.07-10.73Z"/>
  <path class="cls-1" d="M42.93,13.64c0,5.22-2.9,9.99-7.47,12.27-4.57,2.28-10,1.68-14-1.55,3.2-2.59,5.07-6.54,5.07-10.73s-1.87-8.14-5.07-10.73c3.99-3.23,9.43-3.83,14-1.54,4.57,2.28,7.47,7.05,7.47,12.27Z"/>
  <path class="cls-1" d="M41.72,22.41v-.7h.21v-.14h-.54v.14h.21v.7h.12ZM42.77,22.41v-.84h-.17l-.19.58-.19-.58h-.17v.84h.12v-.63l.18.55h.12l.18-.55v.63h.12Z"/>
</svg>