<?xml version="1.0" encoding="UTF-8"?>
<svg xmlns="http://www.w3.org/2000/svg" xmlns:xlink="http://www.w3.org/1999/xlink" viewBox="0 0 51.27 41.02">
  <defs>
    <style>
      .cls-1 {
        fill: url(#linear-gradient);
      }

      .cls-1, .cls-2, .cls-3, .cls-4, .cls-5 {
        isolation: isolate;
      }

      .cls-1, .cls-2, .cls-5 {
        opacity: .7;
      }

      .cls-1, .cls-6, .cls-5 {
        mix-blend-mode: multiply;
      }

      .cls-2 {
        fill: url(#linear-gradient-4);
      }

      .cls-3 {
        fill: url(#linear-gradient-3);
        opacity: .9;
      }

      .cls-6 {
        opacity: .4;
      }

      .cls-5 {
        fill: url(#linear-gradient-2);
      }

      .cls-7 {
        fill: #5e72b6;
      }
    </style>
    <linearGradient id="linear-gradient" x1="65.33" y1="176.12" x2="24.14" y2="749.95" gradientTransform="translate(0 727.83) scale(1 -1)" gradientUnits="userSpaceOnUse">
      <stop offset="0" stop-color="#504778"/>
      <stop offset=".3" stop-color="#504778" stop-opacity=".62"/>
      <stop offset=".61" stop-color="#504778" stop-opacity=".28"/>
      <stop offset=".85" stop-color="#504778" stop-opacity=".08"/>
      <stop offset="1" stop-color="#504778" stop-opacity="0"/>
    </linearGradient>
    <linearGradient id="linear-gradient-2" x1="10.69" y1="1322.63" x2="30.63" y2="681.06" xlink:href="#linear-gradient"/>
    <linearGradient id="linear-gradient-3" x1="-217.76" y1="552.04" x2="390.38" y2="960.04" gradientTransform="translate(0 727.83) scale(1 -1)" gradientUnits="userSpaceOnUse">
      <stop offset="0" stop-color="#504778"/>
      <stop offset=".18" stop-color="#504778" stop-opacity=".87"/>
      <stop offset=".53" stop-color="#504778" stop-opacity=".54"/>
      <stop offset="1" stop-color="#504778" stop-opacity="0"/>
    </linearGradient>
    <linearGradient id="linear-gradient-4" x1="95.75" y1="186.25" x2="69.45" y2="393.21" gradientTransform="translate(0 727.83) scale(1 -1)" gradientUnits="userSpaceOnUse">
      <stop offset="0" stop-color="#504778"/>
      <stop offset=".64" stop-color="#504778" stop-opacity=".33"/>
      <stop offset="1" stop-color="#504778" stop-opacity="0"/>
    </linearGradient>
  </defs>
  <g class="cls-4">
    <g id="Layer_1" data-name="Layer 1">
      <path class="cls-7" d="M22.28,26.07c-.91,0-1.72-.54-2.07-1.36L12.48,6.34c-.47-1.12.07-2.41,1.21-2.88L21.78.17c.55-.22,1.16-.22,1.71,0,.55.22.98.65,1.21,1.19l7.73,18.36c.47,1.12-.07,2.41-1.21,2.88l-8.09,3.3c-.27.11-.56.17-.85.17ZM22.64,1.18c-.13,0-.27.03-.39.08l-8.1,3.3c-.25.1-.45.3-.56.55-.11.25-.1.53,0,.78l7.73,18.36c.22.52.82.76,1.35.55l8.09-3.3c.25-.1.45-.3.56-.55.1-.25.1-.53,0-.78L23.59,1.81c-.16-.38-.54-.63-.95-.63Z"/>
      <path class="cls-1" d="M24.1,3.02l1.11-.45,3.06,7.27-1.11.45-3.06-7.27Z"/>
      <path class="cls-5" d="M31.92,18.5l-1.11.45-3.46-8.23,1.11-.45,3.46,8.23Z"/>
      <path class="cls-7" d="M29.4,13.5c-2.31.94-4.25,2.25-5.51,3.82l-3.26-7.76c1.49-1.7,3.38-3.01,5.51-3.82,2.31-.94,4.65-1.4,6.64-1.14l3.26,7.76c-2.28-.17-4.56.22-6.64,1.14Z"/>
      <g class="cls-6">
        <path class="cls-3" d="M29.4,13.5c-2.31.94-4.25,2.25-5.51,3.82l-3.26-7.76c1.49-1.7,3.38-3.01,5.51-3.82,2.31-.94,4.65-1.4,6.64-1.14l3.26,7.76c-2.28-.17-4.56.22-6.64,1.14Z"/>
        <path class="cls-2" d="M29.4,13.5c-2.31.94-4.25,2.25-5.51,3.82l-3.26-7.76c1.49-1.7,3.38-3.01,5.51-3.82,2.31-.94,4.65-1.4,6.64-1.14l3.26,7.76c-2.28-.17-4.56.22-6.64,1.14Z"/>
      </g>
      <path class="cls-7" d="M30.46,15.86c-2.51,0-4.8.48-6.58,1.45v-7.84c2.04-1.01,4.3-1.51,6.58-1.45,2.51,0,4.85.46,6.58,1.45v7.84c-2.04-1.01-4.3-1.51-6.58-1.45Z"/>
      <path class="cls-7" d="M.02,38.88l2.03-6.31c.02-.09.1-.15.19-.16h1.02c.09.01.17.07.2.16l1.58,3.98c.03.08.11.09.14,0l1.57-3.98c.03-.09.11-.15.2-.16h1.02c.09,0,.17.07.19.16l1.99,6.31s.02.11-.01.15c-.03.04-.08.07-.14.07h-1.2c-.09,0-.16-.05-.18-.14l-1.28-4.1c-.02-.08-.11-.08-.14,0l-1.54,4.07c-.03.1-.12.17-.22.17h-.7c-.1,0-.19-.07-.21-.17l-1.57-4.07c-.03-.08-.11-.08-.13,0l-1.32,4.1c-.02.08-.1.14-.19.14H.16c-.05,0-.11-.02-.13-.07-.03-.04-.03-.1,0-.15ZM10.52,36.63c-.02-1.07.62-2.06,1.62-2.48,1-.43,2.17-.21,2.95.54.78.75,1.02,1.89.61,2.89-.41.99-1.4,1.65-2.49,1.65-.71.02-1.4-.24-1.91-.73-.51-.49-.79-1.16-.78-1.86ZM14.52,36.63c-.04-.71-.65-1.25-1.37-1.22-.72.03-1.28.62-1.27,1.33.01.71.6,1.27,1.32,1.27.36,0,.7-.16.95-.42.25-.26.38-.6.37-.96ZM18.27,38.7c-.1-.08-.19-.05-.19.09v.14c0,.1-.08.18-.18.19h-.94c-.1,0-.18-.08-.19-.19v-6.32c0-.1.09-.18.19-.19h.99c.1,0,.18.09.18.19v1.78c0,.13.09.17.23.07.38-.28.84-.43,1.31-.43,1.37,0,2.41,1.13,2.41,2.59.03.67-.21,1.32-.67,1.81-.46.49-1.11.77-1.78.79-.5,0-.99-.18-1.36-.51ZM20.73,36.63c.04-.49-.2-.95-.63-1.21-.42-.25-.96-.25-1.38,0-.42.25-.67.72-.63,1.21-.01.35.12.7.36.95.25.26.59.4.95.41.75-.02,1.34-.63,1.32-1.36h0ZM22.92,32.88c0-.42.34-.76.77-.76s.77.34.77.76-.34.76-.77.76-.77-.34-.77-.76ZM22.98,38.92v-4.57c0-.1.08-.18.18-.19h.99c.1,0,.18.08.19.19v4.57c0,.1-.09.18-.19.19h-.99c-.1,0-.18-.09-.18-.19ZM25.45,37.41v-4.81c0-.1.08-.18.18-.19h.99c.1,0,.19.08.19.19v4.85c0,.31.14.52.49.52.1,0,.19.08.19.19v.8c0,.1-.09.18-.19.18-1.31,0-1.84-.42-1.84-1.73ZM27.85,36.65c-.04-.94.45-1.82,1.27-2.29.82-.48,1.84-.48,2.65,0,.82.48,1.3,1.36,1.27,2.29,0,.18-.05.32-.23.32h-3.43c-.09,0-.12.05-.11.13.08.59.62,1.01,1.22.97.36,0,.71-.15.95-.42.07-.1.19-.16.32-.16h.91c.16,0,.23.11.17.26-.54,1.08-1.76,1.65-2.95,1.38-1.19-.27-2.04-1.31-2.04-2.52l.02.03ZM31.5,36.2c.07,0,.1-.03.09-.11-.11-.54-.59-.93-1.15-.92-.55,0-1.03.37-1.15.9-.02.07,0,.14.08.14h2.14ZM33.87,38.92v-6.32c0-.1.08-.18.18-.19h3.14c1.44,0,2.41.82,2.41,2.21s-1.11,2.24-2.48,2.24h-1.67c-.05,0-.1.01-.14.05-.04.04-.05.09-.04.14v1.87c0,.1-.09.18-.19.19h-1.04c-.1,0-.18-.08-.18-.19ZM37.13,35.74c.29,0,.56-.12.77-.33.2-.21.31-.48.3-.77.01-.28-.1-.56-.3-.76s-.48-.31-.77-.29h-1.68c-.12,0-.17.06-.17.18v1.79c0,.12.05.18.17.18h1.68ZM40.08,36.63c-.03-.67.22-1.32.69-1.81.47-.49,1.11-.77,1.79-.79.49,0,.96.18,1.33.5.09.08.19.07.19-.05v-.15c0-.1.08-.18.18-.18h.94c.1,0,.18.08.19.19v3.25c0,.25.09.36.26.38.09,0,.16.07.17.16v.85c0,.09-.08.17-.17.17-.66,0-1.05-.19-1.27-.56-.06-.1-.13-.12-.23-.02-.42.43-1,.67-1.61.66-.68-.02-1.32-.31-1.78-.8-.46-.49-.7-1.14-.67-1.81ZM44.07,36.63c.04-.49-.2-.95-.63-1.2-.42-.25-.95-.25-1.38,0-.42.25-.66.72-.63,1.2-.04.49.2.95.63,1.2.42.25.95.25,1.38,0,.42-.25.66-.72.63-1.2ZM46.29,40.81v-.8c0-.1.09-.18.19-.18.64.05,1.24-.34,1.44-.94.03-.13.02-.26-.04-.38l-1.84-4.09c-.03-.06-.03-.12,0-.18.03-.05.09-.09.16-.09h.99c.1,0,.16.08.2.18l1.15,2.62c.08.21.21.2.3,0l1.1-2.62c.04-.1.09-.16.19-.16h.96c.06,0,.12.02.15.07.03.05.04.11.02.16l-1.88,4.41c-.69,1.6-1.42,2.2-2.88,2.2-.05,0-.11-.02-.15-.06-.04-.04-.06-.09-.06-.15Z"/>
    </g>
  </g>
</svg>