<?xml version="1.0" encoding="UTF-8"?>
<svg id="Layer_2" data-name="Layer 2" xmlns="http://www.w3.org/2000/svg" viewBox="0 0 101.9 86.73">
  <defs>
    <style>
      .cls-1 {
        fill: #B8FB82;
      }
    </style>
  </defs>
  <g>
    <path class="cls-1" d="M50.81,86.73c-1.71,0-1.98-1.39-2.09-3.12-.02-.25-.07-.5-.17-.72-6.31-14.11-33.13-7.44-33.41-7.37h0c-1.26.32-2.49-.63-2.49-1.94V3.69c0-.9.6-1.68,1.46-1.93h0c.94-.26,23.16-6.3,37.83,5.55l.74.6v.96c0,1.41.04,6.24.09,12.83.08,10.62.2,26.68.25,39.7.03,7.14.03,12.71,0,16.56-.01,2.12-.03,3.82-.06,5-.05,1.99-.09,3.71-2.05,3.77-.03,0-.07,0-.1,0ZM28.98,69.84c6.35,0,13.44,1.13,18.45,5.17.64.52,1.6.04,1.6-.79.02-13.89-.17-38.56-.27-52.49-.04-5.09-.07-9.13-.08-11.37,0-.32-.16-.63-.42-.82-10.5-7.49-25.24-5.55-30.82-4.44-.47.09-.8.5-.8.98v63.8c0,.62.55,1.09,1.17.98,2.76-.49,6.79-1.02,11.17-1.02Z"/>
    <path class="cls-1" d="M50.95,86.73s-.06,0-.1,0c-1.96-.06-2.01-1.78-2.05-3.77-.03-1.18-.05-2.88-.06-5-.02-3.84-.02-9.41,0-16.56.05-13.02.17-29.08.25-39.7.05-6.59.09-11.42.09-12.83v-.96l.74-.6c14.67-11.84,36.89-5.81,37.83-5.55h0c.86.24,1.46,1.03,1.46,1.93v69.88c0,1.31-1.23,2.26-2.49,1.94h0c-.27-.07-27.1-6.73-33.41,7.37-.1.22-.15.47-.17.72-.11,1.74-.38,3.12-2.09,3.12ZM53.5,9.55c-.26.19-.42.49-.42.82-.01,2.23-.04,6.28-.08,11.37-.1,13.93-.29,38.61-.27,52.5,0,.83.96,1.3,1.61.78,8.46-6.83,22.86-5.34,29.61-4.15.61.11,1.17-.36,1.17-.98V6.09c0-.48-.33-.89-.8-.98-5.59-1.1-20.34-3.03-30.82,4.44Z"/>
  </g>
  <path class="cls-1" d="M50.09,86.73H2c-1.1,0-2-.9-2-2V9.01c0-1.1.9-2,2-2h11.64c1.1,0,2,.9,2,2h0c0,1.1-.9,2-2,2h-7.64c-1.1,0-2,.9-2,2v67.71c0,1.1.9,2,2,2h44.09c1.1,0,2,.9,2,2h0c0,1.1-.9,2-2,2Z"/>
  <path class="cls-1" d="M99.9,86.73h-48.09c-1.1,0-2-.9-2-2h0c0-1.1.9-2,2-2h44.09c1.1,0,2-.9,2-2V13.01c0-1.1-.9-2-2-2h-7.64c-1.1,0-2-.9-2-2h0c0-1.1.9-2,2-2h11.64c1.1,0,2,.9,2,2v75.71c0,1.1-.9,2-2,2Z"/>
</svg>