<?xml version="1.0" encoding="UTF-8"?>
<svg id="Layer_1" data-name="Layer 1" xmlns="http://www.w3.org/2000/svg" viewBox="0 0 119 54">
  <defs>
    <style>
      .cls-1 {
        fill: #B8FB82;
      }
    </style>
  </defs>
  <path class="cls-1" d="M.65,38.77c-.14,0-.21-.11-.21-.32s.07-.32.21-.32c1.06,0,1.85-.09,2.38-.27.53-.21.94-.57,1.22-1.06.28-.53.53-1.31.74-2.33l4.29-24.54c.14-.67.21-1.27.21-1.8,0-.74-.21-1.24-.64-1.48-.42-.25-1.2-.37-2.33-.37-.14,0-.21-.11-.21-.32s.07-.32.21-.32l2.54.05c1.41.07,2.58.11,3.5.11.6,0,1.15-.02,1.64-.05.53-.04.99-.07,1.38-.11,1.02-.11,1.91-.16,2.65-.16,6.15,0,9.22,1.91,9.22,5.72,0,.49-.05,1.01-.16,1.54-.35,1.98-1.24,3.73-2.65,5.25-1.41,1.48-3.16,2.63-5.25,3.44-2.05.81-4.22,1.22-6.52,1.22-.67,0-1.08-.04-1.22-.11l.32-1.64c.21.11.51.19.9.27.39.04.74.05,1.06.05,2.33,0,4.1-.57,5.3-1.7,1.24-1.13,2.05-3,2.44-5.62.14-.81.21-1.61.21-2.39,0-1.7-.39-2.93-1.17-3.71-.74-.81-1.73-1.22-2.97-1.22-.85,0-1.45.07-1.8.21-.35.11-.64.39-.85.85-.18.42-.37,1.22-.58,2.39l-4.35,24.43c-.14.99-.21,1.59-.21,1.8,0,.74.21,1.24.64,1.48.42.25,1.18.37,2.28.37.14,0,.21.11.21.32s-.05.32-.16.32c-1.1,0-1.94-.02-2.54-.05l-3.55-.05-3.66.05c-.6.04-1.45.05-2.54.05ZM24.03,38.77c-.49,0-1.17-.58-2.01-1.75-.81-1.2-1.77-3.07-2.86-5.62-1.06-2.58-2.17-5.81-3.34-9.7l4.29-1.43c1.73,4.49,3.25,8.02,4.56,10.6,1.34,2.58,2.6,4.43,3.76,5.56,1.17,1.13,5.98,1.7,7.22,1.7.11,0,.5.11.5.32s-.39.32-.5.32h-11.62Z"/>
  <path class="cls-1" d="M38.19,39.4c-2.44,0-4.28-.74-5.51-2.23-1.2-1.48-1.8-3.36-1.8-5.62,0-.78.09-1.64.26-2.6.35-1.91,1.13-3.73,2.33-5.46,1.24-1.73,2.77-3.14,4.61-4.24,1.84-1.1,3.82-1.64,5.94-1.64,1.34,0,2.38.23,3.13.69.74.46,1.11,1.1,1.11,1.91,0,1.24-.71,2.42-2.12,3.55-1.41,1.1-3.25,2.03-5.51,2.81-2.26.78-4.61,1.29-7.05,1.54l.11-.69c2.9-.46,5.16-1.2,6.78-2.23,1.66-1.02,2.49-2.44,2.49-4.24,0-.6-.16-1.06-.48-1.38-.28-.35-.69-.53-1.22-.53-1.17,0-2.19.76-3.07,2.28-.88,1.52-1.52,3.48-1.91,5.88-.14.85-.21,1.77-.21,2.76,0,2.16.44,3.89,1.33,5.19.88,1.27,2.19,1.91,3.92,1.91.74,0,1.54-.12,2.39-.37.88-.28,2.34-1.37,3.05-1.93h-.1c.11,0,.43.39.5.5.11.11-.62.51-.69.58-1.27,1.24-2.61,2.14-4.03,2.7-1.41.57-2.83.85-4.24.85Z"/>
  <path class="cls-1" d="M50.09,39.45c-1.1,0-1.96-.34-2.6-1.01-.64-.67-.95-1.68-.95-3.02,0-2.37.78-4.95,2.33-7.74,1.59-2.83,3.53-5.21,5.83-7.15,2.33-1.94,4.52-2.92,6.57-2.92,1.2,0,2.31.34,3.34,1.01,1.02.67,1.59,1.66,1.7,2.97l-3.18-1.75c.6-.07,1.22-.35,1.85-.85.67-.49,1.24-1.1,1.7-1.8.07-.07.14-.11.21-.11.11,0,.21.04.32.11s.14.12.11.16l-3.07,16.69c-.11.46-.16.87-.16,1.22,0,.85.25,1.27.74,1.27.67,0,1.63-.62,2.86-1.85.04-.04.09-.05.16-.05.11,0,.19.07.26.21.07.11.07.19,0,.27-2.26,2.76-4.24,4.13-5.94,4.13-.92,0-1.59-.25-2.01-.74-.42-.53-.64-1.34-.64-2.44,0-.6.05-1.27.16-2.01l1.33-7.42,1.11-.9c-.81,2.79-1.89,5.23-3.23,7.31-1.34,2.08-2.79,3.67-4.35,4.77-1.52,1.1-3,1.64-4.45,1.64ZM53.48,35.59c1.06,0,2.14-.55,3.23-1.64,1.13-1.13,2.1-2.49,2.92-4.08.85-1.63,1.4-3.13,1.64-4.5.11-.6.16-1.13.16-1.59,0-1.1-.25-1.96-.74-2.6-.49-.64-1.18-.95-2.07-.95-.99,0-1.98.41-2.97,1.22-.95.81-1.8,1.94-2.54,3.39-.71,1.45-1.22,3.06-1.54,4.82-.18,1.13-.27,1.98-.27,2.54,0,1.17.19,2.03.58,2.6.39.53.92.79,1.59.79Z"/>
  <path class="cls-1" d="M72.31,39.45c-1.34,0-2.47-.42-3.39-1.27-.88-.88-1.32-2.21-1.32-3.97,0-.71.07-1.41.21-2.12.46-2.47,1.47-4.82,3.02-7.05,1.55-2.23,3.36-4.01,5.41-5.35,2.05-1.38,4.03-2.07,5.94-2.07,1.24,0,2.28.3,3.13.9.88.6,1.36,1.48,1.43,2.65l-2.65,4.56c-1.66,4.2-3.5,7.54-5.51,10.02s-4.1,3.71-6.25,3.71ZM74.96,35.74c1.34,0,2.63-.72,3.87-2.17,1.27-1.45,2.3-3.13,3.07-5.03.81-1.91,1.22-3.43,1.22-4.56,0-1.2-.39-2.12-1.17-2.76-.74-.67-1.64-1.01-2.7-1.01-1.66,0-3.09.8-4.29,2.39-1.2,1.55-2.03,3.76-2.49,6.62-.14.85-.21,1.71-.21,2.6,0,2.61.9,3.92,2.7,3.92ZM83.66,39.24c-1.7,0-2.54-1.01-2.54-3.02,0-.71.07-1.43.21-2.17l4.88-26.5c.11-.71.16-1.29.16-1.75,0-1.02-.34-1.54-1.01-1.54-.42,0-1.17.25-2.23.74h-.05c-.18,0-.28-.09-.32-.26-.04-.21.02-.34.16-.37L91.13.34h.11c.14,0,.26.05.37.16.14.11.19.19.16.27l-5.94,33.28c-.11.53-.16.95-.16,1.27,0,.81.26,1.22.79,1.22.35,0,.74-.16,1.17-.48.46-.32,3.27-3.04,3.9-3.64.07-.07-.46.5-.39.5.11,0,2.69-2.43,2.76-2.28.07.11-3.26,3.53-3.37,3.63-1.2,1.41-3.1,3.3-4.02,3.97-.92.67-1.87,1.01-2.86,1.01Z"/>
  <path class="cls-1" d="M92.78,39.24c-1.7,0-2.54-1.01-2.54-3.02,0-.71.07-1.43.21-2.17l4.88-26.5c.11-.71.16-1.29.16-1.75,0-1.02-.34-1.54-1.01-1.54-.42,0-1.17.25-2.23.74h-.05c-.18,0-.28-.09-.32-.26-.04-.21.02-.34.16-.37L100.26.34h.11c.14,0,.27.05.37.16.14.11.19.19.16.27l-5.94,33.28c-.11.53-.16.97-.16,1.33,0,.78.27,1.17.8,1.17.35,0,.74-.16,1.17-.48.46-.32,9.94-9.71,10.57-10.31.07-.07-.85,1.16-.78,1.16.11,0,.86-.66-.41.6.07.11-7.22,7.48-7.32,7.59-1.2,1.41-2.26,2.46-3.18,3.13-.92.67-1.87,1.01-2.86,1.01Z"/>
  <path class="cls-1" d="M95.45,53.66c-2.08,0-3.13-.83-3.13-2.49,0-.99.28-1.77.85-2.33.53-.53,1.29-.79,2.28-.79.53,0,1.25.21,2.17.64.11.04.37.14.79.32.42.18.85.26,1.27.26.6,0,1.2-.21,1.8-.64,1.2-.85,2.77-2.63,4.72-5.35,1.98-2.72,3.8-5.53,5.46-8.43,1.7-2.93,2.69-5,2.97-6.2.21-.85.32-1.57.32-2.17,0-.74-.11-1.34-.32-1.8-.21-.46-.51-.99-.9-1.59-.35-.53-.62-.95-.79-1.27-.18-.35-.26-.8-.26-1.33,0-.81.28-1.47.85-1.96.57-.49,1.31-.74,2.23-.74s1.57.32,2.07.95c.49.64.74,1.55.74,2.76,0,2.61-1.43,6.55-4.29,11.82-2.86,5.26-6.13,9.96-9.81,14.1-3.67,4.17-6.68,6.25-9.01,6.25ZM104.94,45.92c.03-.78.05-1.91.05-3.39,0-6.89-.5-12.23-1.48-16.01-.95-3.82-2.26-5.72-3.92-5.72-.42,0-.87.16-1.33.48-.42.32-.78.71-1.06,1.17-.04.11-.14.16-.32.16-.25,0-.35-.11-.32-.32.6-1.27,1.52-2.33,2.76-3.18,1.24-.85,2.37-1.27,3.39-1.27,1.34,0,2.51.78,3.5,2.33,1.02,1.55,1.78,3.69,2.28,6.41.53,2.72.8,5.78.8,9.17,0,.81-.04,2.1-.11,3.87l-4.24,6.31Z"/>
</svg>