<?xml version="1.0" encoding="UTF-8"?>
<svg id="Layer_1" data-name="Layer 1" xmlns="http://www.w3.org/2000/svg" viewBox="0 0 2350.1 207.03">
  <defs>
    <style>
      .cls-1 {
        fill: #fffbf7;
        stroke: #10112c;
      }
    </style>
  </defs>
  <path class="cls-1" d="M.4,206.73C89.5,87.11,224.92,6.87,408.19.84c75.72-2.49,134.07,9.29,192.26,21.71,2.27.48,4.54.97,6.8,1.45,55.93,11.96,112.32,24.03,184.36,24.03s133.42-11.81,191.84-23.6h.02c58.43-11.8,116.79-23.58,191.58-23.58s133.16,11.78,191.58,23.58h.02c58.42,11.8,116.9,23.61,191.84,23.61s128.44-12.06,184.36-24.03c2.27-.49,4.54-.97,6.81-1.45,58.18-12.42,116.53-24.2,192.25-21.71,183.27,6.03,318.69,86.27,407.79,205.9"/>
</svg>