<?xml version="1.0" encoding="UTF-8"?>
<svg id="Layer_1" data-name="Layer 1" xmlns="http://www.w3.org/2000/svg" viewBox="0 0 1520 82.05">
  <defs>
    <style>
      .cls-1 {
        fill: #fffbf7;
      }

      .cls-2 {
        fill: #06072d;
      }
    </style>
  </defs>
  <path class="cls-2" d="M1329.43,8.63c-2.28.2-4.46.39-6.74.58-55.4,4.7-111.29,9.4-182.74,9.4s-132.2-4.64-190.07-9.27C892,4.7,834.13.06,760,.06h0c-74.13,0-132,4.64-189.88,9.28-57.87,4.64-118.62,9.27-190.07,9.27s-127.34-4.7-182.74-9.4c-2.28-.19-4.46-.38-6.74-.58C132.89,3.8,75.12-.83,0,.13v80.92h760s760,0,760,0V.13c-75.12-.97-132.89,3.67-190.57,8.5Z"/>
  <path class="cls-1" d="M1329.43,9.63c-2.28.2-4.46.39-6.74.58-55.4,4.7-111.29,9.4-182.74,9.4s-132.2-4.64-190.07-9.27c-57.87-4.64-115.75-9.27-189.88-9.27h0c-74.13,0-132,4.64-189.88,9.28-57.87,4.64-118.62,9.27-190.07,9.27s-127.34-4.7-182.74-9.4c-2.28-.19-4.46-.38-6.74-.58C132.89,4.8,75.12.17,0,1.13v80.92h760s760,0,760,0V1.13c-75.12-.97-132.89,3.67-190.57,8.5Z"/>
</svg>