<?xml version="1.0" encoding="UTF-8"?>
<svg id="Layer_1" data-name="Layer 1" xmlns="http://www.w3.org/2000/svg" viewBox="0 0 1520 82.05">
  <defs>
    <style>
      .cls-1 {
        fill: #fffbf7;
      }

      .cls-2 {
        fill: #06072d;
      }
    </style>
  </defs>
  <path class="cls-2" d="M1339.08,8.63c-2.32.2-4.54.39-6.86.58-56.37,4.7-113.25,9.4-185.95,9.4s-134.52-4.64-193.41-9.27C893.96,4.7,835.08.06,759.64.06h0c-75.43,0-134.32,4.64-193.22,9.28-58.89,4.64-120.7,9.27-193.41,9.27s-129.58-4.7-185.95-9.4c-2.32-.19-4.54-.38-6.86-.58C121.51,3.8,62.73-.83-13.71.13v80.92h1546.71V.13c-76.44-.97-135.23,3.67-193.92,8.5h0Z"/>
  <path class="cls-1" d="M1339.08,9.63c-2.32.2-4.54.39-6.86.58-56.37,4.7-113.25,9.4-185.95,9.4s-134.52-4.64-193.41-9.27c-58.89-4.64-117.78-9.27-193.22-9.27h0c-75.43,0-134.32,4.64-193.22,9.28-58.89,4.64-120.7,9.27-193.41,9.27s-129.58-4.7-185.95-9.4c-2.32-.19-4.54-.38-6.86-.58C121.51,4.8,62.73.17-13.71,1.13v80.92h1546.71V1.13c-76.44-.97-135.23,3.67-193.92,8.5h0Z"/>
</svg>