<?xml version="1.0" encoding="UTF-8"?>
<svg id="Layer_1" data-name="Layer 1" xmlns="http://www.w3.org/2000/svg" viewBox="0 0 1533.8 100.11">
  <defs>
    <style>
      .cls-1 {
        fill: #fffbf7;
      }

      .cls-2 {
        fill: #10112c;
      }
    </style>
  </defs>
  <g>
    <path class="cls-2" d="M766.9,99.63H0V.16c75.8-1.19,134.1,4.51,192.3,10.45,2.3.24,4.5.48,6.8.71,55.9,5.78,112.3,11.56,184.4,11.56s133.4-5.7,191.8-11.4h0C633.7,5.78,692.1.08,766.9.08"/>
    <path class="cls-2" d="M766.9,99.63h766.9V.16c-75.8-1.19-134.1,4.51-192.3,10.45-2.3.24-4.5.48-6.8.71-55.9,5.78-112.3,11.56-184.4,11.56s-133.4-5.7-191.8-11.4h0C900.1,5.78,841.7.08,766.9.08"/>
  </g>
  <g>
    <path class="cls-1" d="M766.9,100.11H0V.63C75.8-.55,134.1,5.15,192.3,11.09c2.3.24,4.5.48,6.8.71,55.9,5.78,112.3,11.56,184.4,11.56s133.4-5.7,191.8-11.4h0c58.4-5.7,116.8-11.4,191.6-11.4"/>
    <path class="cls-1" d="M766.9,100.11h766.9V.63c-75.8-1.19-134.1,4.51-192.3,10.45-2.3.24-4.5.48-6.8.71-55.9,5.78-112.3,11.56-184.4,11.56s-133.4-5.7-191.8-11.4h0c-58.4-5.7-116.8-11.4-191.6-11.4"/>
  </g>
</svg>