<?xml version="1.0" encoding="UTF-8"?>
<svg id="Layer_1" data-name="Layer 1" xmlns="http://www.w3.org/2000/svg" viewBox="0 0 1534.79 207.63">
  <defs>
    <style>
      .cls-1 {
        fill: #10112c;
      }

      .cls-2 {
        fill: #fffbf7;
      }
    </style>
  </defs>
  <g>
    <path class="cls-1" d="M767.46,206.63H.53L.6.34c75.72-2.49,134.07,9.29,192.26,21.71,2.27.48,4.54.97,6.8,1.45,55.93,11.96,112.32,24.03,184.36,24.03s133.42-11.81,191.84-23.6h.02C634.3,12.12,692.67.34,767.46.34"/>
    <path class="cls-1" d="M767.46,206.63h766.93s-.07-206.3-.07-206.3c-75.72-2.49-134.07,9.29-192.26,21.71-2.27.48-4.54.97-6.8,1.45-55.93,11.96-112.32,24.03-184.36,24.03-74.94,0-133.42-11.81-191.84-23.6h-.02C900.62,12.12,842.25.34,767.46.34"/>
  </g>
  <g>
    <path class="cls-2" d="M767.46,207.63H.53L.6,1.34C76.32-1.16,134.67,10.62,192.85,23.04c2.27.48,4.54.97,6.8,1.45,55.93,11.96,112.32,24.03,184.36,24.03s133.42-11.81,191.84-23.6h.02c58.43-11.8,116.79-23.58,191.58-23.58"/>
    <path class="cls-2" d="M767.46,207.63h766.93s-.07-206.3-.07-206.3c-75.72-2.49-134.07,9.29-192.26,21.71-2.27.48-4.54.97-6.8,1.45-55.93,11.96-112.32,24.03-184.36,24.03-74.94,0-133.42-11.81-191.84-23.6h-.02c-58.43-11.8-116.79-23.58-191.58-23.58"/>
  </g>
</svg>