<?xml version="1.0" encoding="UTF-8"?>
<svg id="Layer_1" data-name="Layer 1" xmlns="http://www.w3.org/2000/svg" viewBox="0 0 61.9 19">
  <defs>
    <style>
      .cls-1 {
        fill: #f8c216;
      }

      .cls-2 {
        fill: #2c68b3;
      }
    </style>
  </defs>
  <path class="cls-1" d="M10.94,2.21c-.25-1.19-1.22-1.87-2.31-1.87H.12l-.12.53c1.75.36,3.73.94,4.93,1.56.74.38.95.71,1.19,1.61l.06.22,5.85,3.45-1.09-5.51Z"/>
  <path class="cls-2" d="M18.25.34l-5.2,12.5-1.02-5.13-5.85-3.45,3.93,14.44h5.29L23.5.34h-5.25Z"/>
  <path class="cls-2" d="M25.65.34l-4.13,18.37h5L30.65.34h-5Z"/>
  <path class="cls-2" d="M51.69,12.2l2.64-6.9,1.51,6.9h-4.15ZM57.86.34h-4.27c-.96,0-1.77.53-2.13,1.34l-7.5,17.03h5.25l1.04-2.75h6.42l.61,2.75h4.62L57.86.34ZM37.21,5.43c.01-.66.68-1.36,2.12-1.54.72-.09,2.69-.16,4.93.82l.88-3.9c-1.2-.41-2.75-.81-4.68-.81-4.94,0-8.42,2.5-8.45,6.07-.03,2.64,2.49,4.12,4.38,5,1.95.9,2.6,1.48,2.6,2.28-.01,1.23-1.56,1.78-2.99,1.8-2.52.04-3.97-.65-5.14-1.16l-.91,4.03c1.17.51,3.33.95,5.56.98,5.26,0,8.69-2.47,8.71-6.29.02-4.85-7.05-5.12-7.01-7.28Z"/>
</svg>